<svg width="477" height="130" viewBox="0 0 477 130" fill="none" xmlns="http://www.w3.org/2000/svg">
<g clip-path="url(#clip0_312_854)">
<path d="M155.608 101V53.32H187.288V61H164.312V73.224H186.008V80.904H164.312V93.32H187.288V101H155.608ZM206.215 101.768C202.503 101.768 199.26 100.893 196.487 99.144C193.756 97.352 191.879 94.9413 190.855 91.912L197.127 88.904C198.023 90.8667 199.26 92.4027 200.839 93.512C202.46 94.6213 204.252 95.176 206.215 95.176C207.751 95.176 208.967 94.8347 209.863 94.152C210.759 93.4693 211.207 92.5733 211.207 91.464C211.207 90.7813 211.015 90.2267 210.631 89.8C210.289 89.3307 209.799 88.9467 209.159 88.648C208.561 88.3067 207.9 88.0293 207.175 87.816L201.479 86.216C198.535 85.3627 196.295 84.0613 194.759 82.312C193.265 80.5627 192.519 78.4933 192.519 76.104C192.519 73.9707 193.052 72.1147 194.119 70.536C195.228 68.9147 196.743 67.656 198.663 66.76C200.625 65.864 202.865 65.416 205.383 65.416C208.668 65.416 211.569 66.2053 214.087 67.784C216.604 69.3627 218.396 71.5813 219.463 74.44L213.063 77.448C212.465 75.8693 211.463 74.6107 210.055 73.672C208.647 72.7333 207.068 72.264 205.319 72.264C203.911 72.264 202.801 72.584 201.991 73.224C201.18 73.864 200.775 74.696 200.775 75.72C200.775 76.36 200.945 76.9147 201.287 77.384C201.628 77.8533 202.097 78.2373 202.695 78.536C203.335 78.8347 204.06 79.112 204.871 79.368L210.439 81.032C213.297 81.8853 215.495 83.1653 217.031 84.872C218.609 86.5787 219.399 88.6693 219.399 91.144C219.399 93.2347 218.844 95.0907 217.735 96.712C216.625 98.2907 215.089 99.528 213.127 100.424C211.164 101.32 208.86 101.768 206.215 101.768ZM241.714 101.384C237.788 101.384 234.738 100.317 232.562 98.184C230.428 96.008 229.362 92.9573 229.362 89.032V73.672H223.346V66.184H223.986C225.692 66.184 227.015 65.736 227.954 64.84C228.892 63.944 229.362 62.6427 229.362 60.936V58.248H237.746V66.184H245.746V73.672H237.746V88.584C237.746 89.736 237.938 90.7173 238.322 91.528C238.748 92.3387 239.388 92.9573 240.242 93.384C241.138 93.8107 242.268 94.024 243.634 94.024C243.932 94.024 244.274 94.0027 244.658 93.96C245.084 93.9173 245.49 93.8747 245.874 93.832V101C245.276 101.085 244.594 101.171 243.826 101.256C243.058 101.341 242.354 101.384 241.714 101.384ZM262.714 101.768C260.282 101.768 258.17 101.363 256.378 100.552C254.586 99.7413 253.199 98.5893 252.218 97.096C251.237 95.56 250.746 93.7893 250.746 91.784C250.746 89.864 251.173 88.1573 252.026 86.664C252.879 85.128 254.202 83.848 255.994 82.824C257.786 81.8 260.047 81.0747 262.778 80.648L274.17 78.792V85.192L264.378 86.856C262.714 87.1547 261.477 87.688 260.666 88.456C259.855 89.224 259.45 90.2267 259.45 91.464C259.45 92.6587 259.898 93.6187 260.794 94.344C261.733 95.0267 262.885 95.368 264.25 95.368C265.999 95.368 267.535 95.0053 268.858 94.28C270.223 93.512 271.269 92.4667 271.994 91.144C272.762 89.8213 273.146 88.3707 273.146 86.792V77.832C273.146 76.3387 272.549 75.1013 271.354 74.12C270.202 73.096 268.666 72.584 266.746 72.584C264.954 72.584 263.354 73.0747 261.946 74.056C260.581 74.9947 259.578 76.2533 258.938 77.832L252.09 74.504C252.773 72.6693 253.839 71.0907 255.29 69.768C256.783 68.4027 258.533 67.336 260.538 66.568C262.543 65.8 264.719 65.416 267.066 65.416C269.925 65.416 272.442 65.9493 274.618 67.016C276.794 68.04 278.479 69.4907 279.674 71.368C280.911 73.2027 281.53 75.3573 281.53 77.832V101H273.594V95.048L275.386 94.92C274.49 96.4133 273.423 97.672 272.186 98.696C270.949 99.6773 269.541 100.445 267.962 101C266.383 101.512 264.634 101.768 262.714 101.768ZM304.526 101.384C300.601 101.384 297.55 100.317 295.374 98.184C293.241 96.008 292.174 92.9573 292.174 89.032V73.672H286.158V66.184H286.798C288.505 66.184 289.827 65.736 290.766 64.84C291.705 63.944 292.174 62.6427 292.174 60.936V58.248H300.558V66.184H308.558V73.672H300.558V88.584C300.558 89.736 300.75 90.7173 301.134 91.528C301.561 92.3387 302.201 92.9573 303.054 93.384C303.95 93.8107 305.081 94.024 306.446 94.024C306.745 94.024 307.086 94.0027 307.47 93.96C307.897 93.9173 308.302 93.8747 308.686 93.832V101C308.089 101.085 307.406 101.171 306.638 101.256C305.87 101.341 305.166 101.384 304.526 101.384ZM331.291 101.768C327.707 101.768 324.571 100.957 321.883 99.336C319.195 97.7147 317.104 95.5173 315.611 92.744C314.118 89.9707 313.371 86.8987 313.371 83.528C313.371 80.0293 314.118 76.936 315.611 74.248C317.147 71.5173 319.216 69.3627 321.819 67.784C324.464 66.2053 327.408 65.416 330.651 65.416C333.382 65.416 335.771 65.864 337.819 66.76C339.91 67.656 341.68 68.8933 343.131 70.472C344.582 72.0507 345.691 73.864 346.459 75.912C347.227 77.9173 347.611 80.0933 347.611 82.44C347.611 83.0373 347.568 83.656 347.483 84.296C347.44 84.936 347.334 85.4907 347.163 85.96H320.283V79.56H342.427L338.459 82.568C338.843 80.6053 338.736 78.856 338.139 77.32C337.584 75.784 336.646 74.568 335.323 73.672C334.043 72.776 332.486 72.328 330.651 72.328C328.902 72.328 327.344 72.776 325.979 73.672C324.614 74.5253 323.568 75.8053 322.843 77.512C322.16 79.176 321.904 81.2027 322.075 83.592C321.904 85.7253 322.182 87.624 322.907 89.288C323.675 90.9093 324.784 92.168 326.235 93.064C327.728 93.96 329.435 94.408 331.355 94.408C333.275 94.408 334.896 94.0027 336.219 93.192C337.584 92.3813 338.651 91.2933 339.419 89.928L346.203 93.256C345.52 94.92 344.454 96.392 343.003 97.672C341.552 98.952 339.824 99.9547 337.819 100.68C335.856 101.405 333.68 101.768 331.291 101.768ZM353.967 101V66.184H361.839V73.928L361.199 72.776C362.009 70.1733 363.268 68.36 364.975 67.336C366.724 66.312 368.815 65.8 371.247 65.8H373.295V73.224H370.287C367.897 73.224 365.977 73.9707 364.527 75.464C363.076 76.9147 362.351 78.9627 362.351 81.608V101H353.967ZM382.128 115.08C381.189 115.08 380.272 114.995 379.376 114.824C378.48 114.696 377.669 114.44 376.944 114.056V107.08C377.499 107.208 378.16 107.336 378.928 107.464C379.739 107.592 380.485 107.656 381.168 107.656C383.088 107.656 384.475 107.208 385.328 106.312C386.224 105.459 387.013 104.307 387.696 102.856L390 97.48L389.872 104.52L374.704 66.184H383.728L394.352 94.472H391.152L401.712 66.184H410.8L395.632 104.52C394.736 106.739 393.648 108.637 392.368 110.216C391.088 111.795 389.595 112.989 387.888 113.8C386.224 114.653 384.304 115.08 382.128 115.08Z" fill="white"/>
<g clip-path="url(#clip1_312_854)">
<path d="M108.689 49.7278L80.4273 27.9508C77.9471 26.0393 74.8945 25.0015 71.7521 25.0015C68.6098 25.0015 65.5572 26.0393 63.077 27.9508L34.8098 49.7278C33.111 51.0365 31.7366 52.7125 30.7915 54.6278C29.8464 56.5431 29.3556 58.6471 29.3567 60.779V98.579C29.3567 101.364 30.4733 104.035 32.461 106.004C34.4487 107.973 37.1445 109.079 39.9555 109.079H103.549C106.36 109.079 109.056 107.973 111.043 106.004C113.031 104.035 114.148 101.364 114.148 98.579V60.779C114.148 56.4583 112.134 52.379 108.689 49.7278Z" fill="white" stroke="white" stroke-width="3" stroke-linecap="round" stroke-linejoin="round"/>
<path d="M92.791 82.75C81.0793 89.7483 62.0967 89.7483 50.3955 82.75" stroke="#7065F0" stroke-width="3" stroke-linecap="round" stroke-linejoin="round"/>
</g>
</g>
<defs>
<clipPath id="clip0_312_854">
<rect width="477" height="130" fill="white"/>
</clipPath>
<clipPath id="clip1_312_854">
<rect width="127.186" height="126" fill="white" transform="translate(8 4)"/>
</clipPath>
</defs>
</svg>
